<svg version="1.2" baseProfile="tiny-ps" xmlns="http://www.w3.org/2000/svg" viewBox="0 0 18 22" width="18" height="22">
	<title>Image cricle</title>
	<style>
		tspan { white-space:pre }
		.shp0 { fill: #000000 } 
	</style>
	<g id="Image cricle">
		<g id="Add to Cart">
			<path id="Facebook" class="shp0" d="M12.18 5.14L15.4 5.14C16.83 5.14 18 3.99 18 2.57C18 1.15 16.83 0 15.4 0L12.18 0C8.33 0 5.19 3.1 5.19 6.9L5.19 8.67L2.61 8.67C1.17 8.67 0 9.82 0 11.24C0 12.65 1.17 13.81 2.61 13.81L5.19 13.81L5.19 19.43C5.19 20.85 6.36 22 7.79 22C9.23 22 10.39 20.85 10.39 19.43L10.39 13.81L13.79 13.81C15.22 13.81 16.39 12.65 16.39 11.24C16.39 9.82 15.22 8.67 13.79 8.67L10.39 8.67L10.39 6.9C10.39 5.93 11.2 5.14 12.18 5.14ZM9.76 9.92L13.79 9.92C14.52 9.92 15.12 10.51 15.12 11.24C15.12 11.96 14.52 12.55 13.79 12.55L9.76 12.55C9.41 12.55 9.12 12.83 9.12 13.18L9.12 19.43C9.12 20.15 8.53 20.74 7.79 20.74C7.06 20.74 6.46 20.15 6.46 19.43L6.46 13.81L6.46 13.19C6.46 12.84 6.18 12.56 5.82 12.56L5.19 12.56L2.61 12.56C1.87 12.56 1.27 11.96 1.27 11.24C1.27 10.51 1.87 9.92 2.61 9.92L5.19 9.92L5.83 9.92C6.18 9.92 6.46 9.64 6.46 9.3C6.46 9.29 6.47 9.29 6.47 9.29C6.47 9.29 6.46 9.28 6.46 9.28L6.46 8.67L6.46 6.9C6.46 3.79 9.03 1.25 12.18 1.25L15.4 1.25C16.13 1.25 16.73 1.84 16.73 2.57C16.73 3.29 16.13 3.88 15.4 3.88L12.18 3.88C10.5 3.88 9.12 5.24 9.12 6.9L9.12 9.29C9.12 9.64 9.41 9.92 9.76 9.92Z" />
		</g>
	</g>
</svg>