<svg version="1.2" baseProfile="tiny-ps" xmlns="http://www.w3.org/2000/svg" viewBox="0 0 24 22" width="24" height="22">
	<title>Image cricle</title>
	<style>
		tspan { white-space:pre }
		.shp0 { fill: #000000 } 
	</style>
	<g id="Image cricle">
		<g id="Add to Cart">
			<path id="Google+" class="shp0" d="M11.12 22C4.99 22 0 17.07 0 11C0 4.93 4.99 0 11.12 0C12.96 0 14.79 0.46 16.4 1.32C17.6 1.96 18.04 3.44 17.4 4.62C16.97 5.41 16.14 5.9 15.23 5.9C14.83 5.9 14.42 5.79 14.06 5.6C13.17 5.12 12.15 4.87 11.12 4.87C7.7 4.87 4.92 7.62 4.92 11C4.92 14.38 7.7 17.13 11.12 17.13C13.61 17.13 15.84 15.65 16.81 13.44L13.94 13.44C12.58 13.44 11.48 12.34 11.48 11C11.48 9.66 12.58 8.56 13.94 8.56L19.78 8.56C21.14 8.56 22.24 9.66 22.24 11C22.24 17.07 17.25 22 11.12 22ZM11.12 1.28C5.7 1.28 1.3 5.64 1.3 11C1.3 16.36 5.7 20.72 11.12 20.72C16.54 20.72 20.94 16.36 20.94 11C20.94 10.36 20.42 9.85 19.78 9.85L13.94 9.85C13.29 9.85 12.77 10.36 12.77 11C12.77 11.64 13.29 12.15 13.94 12.15L18.57 12.15L18.35 12.96C17.45 16.17 14.48 18.41 11.12 18.41C6.99 18.41 3.63 15.09 3.63 11C3.63 6.91 6.99 3.59 11.12 3.59C12.36 3.59 13.59 3.89 14.68 4.47C14.85 4.57 15.04 4.61 15.23 4.61C15.66 4.61 16.06 4.38 16.26 4.01C16.57 3.45 16.35 2.75 15.79 2.44C14.36 1.68 12.75 1.28 11.12 1.28ZM23.22 2.97L21.93 2.97L21.93 1.69C21.93 1.33 21.64 1.04 21.28 1.04C20.92 1.04 20.63 1.33 20.63 1.69L20.63 2.97L19.34 2.97C18.98 2.97 18.69 3.25 18.69 3.61C18.69 3.96 18.98 4.25 19.34 4.25L20.63 4.25L20.63 5.53C20.63 5.88 20.92 6.17 21.28 6.17C21.64 6.17 21.93 5.89 21.93 5.53L21.93 4.25L23.22 4.25C23.58 4.25 23.87 3.96 23.87 3.61C23.87 3.25 23.58 2.97 23.22 2.97ZM21.28 6.3C20.85 6.3 20.5 5.96 20.5 5.53L20.5 4.38L19.34 4.38C18.91 4.38 18.56 4.03 18.56 3.61C18.56 3.19 18.91 2.84 19.34 2.84L20.5 2.84L20.5 1.69C20.5 1.26 20.85 0.92 21.28 0.92C21.71 0.92 22.06 1.26 22.06 1.69L22.06 2.84L23.22 2.84C23.65 2.84 24 3.18 24 3.61C24 4.03 23.65 4.38 23.22 4.38L22.06 4.38L22.06 5.53C22.06 5.96 21.71 6.3 21.28 6.3ZM19.34 3.1C19.05 3.1 18.82 3.33 18.82 3.61C18.82 3.89 19.05 4.12 19.34 4.12L20.76 4.12L20.76 5.53C20.76 5.81 20.99 6.04 21.28 6.04C21.57 6.04 21.8 5.82 21.8 5.53L21.8 4.12L23.22 4.12C23.51 4.12 23.74 3.89 23.74 3.61C23.74 3.33 23.51 3.1 23.22 3.1L21.8 3.1L21.8 1.69C21.8 1.4 21.57 1.17 21.28 1.17C20.99 1.17 20.76 1.4 20.76 1.69L20.76 3.1L19.34 3.1L19.34 3.1Z" />
		</g>
	</g>
</svg>