<svg version="1.2" baseProfile="tiny-ps" xmlns="http://www.w3.org/2000/svg" viewBox="0 0 20 22" width="20" height="22">
	<title>Image cricle</title>
	<style>
		tspan { white-space:pre }
		.shp0 { fill: #000000 } 
	</style>
	<g id="Image cricle">
		<g id="Add to Cart">
			<path id="Linkedin" class="shp0" d="M1.08 5.18C0.49 5.18 0 5.66 0 6.26L0 20.91C0 21.51 0.49 22 1.08 22C1.68 22 2.17 21.51 2.17 20.91L2.17 6.26C2.17 5.66 1.68 5.18 1.08 5.18ZM8.83 16.63C8.23 16.63 7.74 17.11 7.74 17.71L7.74 20.91C7.74 21.51 8.23 22 8.83 22C9.43 22 9.91 21.51 9.91 20.91L9.91 17.71C9.91 17.11 9.43 16.63 8.83 16.63ZM13.87 6.34C12.36 6.34 10.98 6.89 9.91 7.8L9.91 6.26C9.91 5.66 9.43 5.18 8.83 5.18C8.23 5.18 7.74 5.66 7.74 6.26L7.74 12.47C7.74 12.47 7.74 12.47 7.74 12.47C7.74 12.47 7.74 12.47 7.74 12.47C7.74 13.07 8.23 13.55 8.83 13.55C9.43 13.55 9.91 13.07 9.91 12.47C9.91 10.28 11.69 8.51 13.87 8.51C16.05 8.51 17.83 10.28 17.83 12.47L17.83 20.91C17.83 21.51 18.32 22 18.92 22C19.51 22 20 21.51 20 20.91L20 12.47C20 9.09 17.25 6.34 13.87 6.34ZM1.08 2.17C1.37 2.17 1.65 2.05 1.85 1.85C2.05 1.65 2.17 1.37 2.17 1.08C2.17 0.8 2.05 0.52 1.85 0.32C1.65 0.12 1.37 0 1.08 0C0.8 0 0.52 0.12 0.32 0.32C0.12 0.52 0 0.8 0 1.08C0 1.37 0.12 1.65 0.32 1.85C0.52 2.05 0.8 2.17 1.08 2.17Z" />
		</g>
	</g>
</svg>