<svg version="1.2" baseProfile="tiny-ps" xmlns="http://www.w3.org/2000/svg" viewBox="0 0 17 22" width="17" height="22">
	<title>Image cricle</title>
	<style>
		tspan { white-space:pre }
		.shp0 { fill: #000000 } 
	</style>
	<g id="Image cricle">
		<g id="Add to Cart">
			<path id="Pinterest" class="shp0" d="M16.73 5.49C16.4 4.36 15.87 3.41 15.11 2.59C14.37 1.78 13.52 1.16 12.51 0.71C11.78 0.39 10.6 0 9.12 0C8.99 0 8.86 0 8.73 0.01C8.29 0.03 7.82 0.06 7.37 0.12C6.11 0.3 5 0.68 3.98 1.29C2.68 2.05 1.66 3.1 0.96 4.39C0.59 5.06 0.23 6.25 0.08 7.02C-0.1 7.94 0.06 9.52 0.42 10.42C0.87 11.52 1.26 12.04 2.16 12.72C2.17 12.72 2.72 13.14 3.13 13.14L3.13 13.14C3.85 13.12 3.99 12.44 4.06 12.11C4.07 12.05 4.08 11.99 4.1 11.94C4.11 11.89 4.13 11.84 4.14 11.78C4.24 11.46 4.37 11.02 4.15 10.62C4.06 10.47 3.96 10.36 3.88 10.26C3.83 10.21 3.79 10.16 3.75 10.1C3.44 9.62 3.28 9.03 3.28 8.32C3.28 7.4 3.48 6.56 3.91 5.76C4.68 4.31 5.96 3.4 7.6 3.11C8.53 2.96 9.66 3.03 10.46 3.29C11.21 3.53 11.84 3.96 12.3 4.53C12.78 5.14 13.06 5.9 13.12 6.81C13.15 7.26 13.13 7.76 13.06 8.38C12.9 9.88 12.47 11.09 11.79 11.97C11.23 12.69 10.64 13.05 9.97 13.07L9.88 13.07C9.49 13.07 9.2 12.98 8.93 12.79C8.66 12.59 8.5 12.35 8.42 12.03C8.33 11.66 8.44 11.26 8.55 10.85L8.57 10.78C8.67 10.41 8.77 10.08 8.88 9.75C9.04 9.22 9.21 8.68 9.35 8.05C9.5 7.33 9.52 6.75 9.41 6.28C9.27 5.68 8.95 5.24 8.47 4.95C7.98 4.66 7.24 4.6 6.65 4.8C5.76 5.11 5.07 5.93 4.78 7.05C4.63 7.62 4.59 8.22 4.65 8.82C4.7 9.29 4.81 9.72 4.99 10.23C4.99 10.25 4.98 10.27 4.98 10.29C4.96 10.33 4.95 10.38 4.94 10.42C4.73 11.3 4.53 12.17 4.33 13.04C4.14 13.85 3.95 14.65 3.76 15.47L3.72 15.65C3.52 16.49 3.31 17.36 3.27 18.4L3.24 18.83C3.2 19.64 3.16 20.48 3.27 21.25C3.29 21.4 3.34 21.76 3.69 21.89C3.75 21.94 3.85 22 4 22L4 22C4.28 22 4.46 21.8 4.75 21.46C5.43 20.68 6.01 19.69 6.52 18.44C6.75 17.88 6.9 17.28 7.04 16.7L7.13 16.36C7.23 15.96 7.33 15.56 7.43 15.17C7.61 15.31 7.81 15.45 8.04 15.58C8.58 15.89 9.2 16.07 9.87 16.12C10.52 16.16 11.15 16.08 11.88 15.86C12.43 15.71 12.96 15.46 13.45 15.14C15.2 14 16.4 12.01 16.82 9.53C16.94 8.78 17 8.19 17 7.54C17 6.78 16.91 6.09 16.73 5.49ZM15.87 9.36C15.5 11.57 14.45 13.33 12.93 14.33C12.52 14.59 12.07 14.8 11.61 14.93C10.99 15.11 10.47 15.18 9.93 15.14C9.4 15.11 8.93 14.97 8.5 14.73C8.07 14.49 7.8 14.23 7.6 13.89C7.51 13.72 7.32 13.63 7.12 13.66C6.93 13.68 6.77 13.83 6.72 14.02L6.51 14.88C6.4 15.29 6.3 15.71 6.2 16.11L6.11 16.46C5.97 17.04 5.83 17.58 5.63 18.07C5.2 19.13 4.72 19.98 4.17 20.65C4.14 20.1 4.17 19.48 4.2 18.88L4.23 18.45C4.27 17.5 4.46 16.67 4.65 15.88L4.7 15.69C4.89 14.88 5.08 14.07 5.27 13.26C5.47 12.39 5.67 11.52 5.88 10.64L5.9 10.56C5.95 10.39 6.01 10.19 5.93 9.99C5.75 9.51 5.65 9.13 5.61 8.72C5.56 8.23 5.59 7.76 5.71 7.3C5.92 6.5 6.38 5.93 6.96 5.72C7.1 5.68 7.24 5.65 7.4 5.65C7.62 5.65 7.84 5.7 7.99 5.79C8.24 5.94 8.4 6.17 8.48 6.51C8.55 6.83 8.53 7.28 8.41 7.84C8.28 8.43 8.12 8.93 7.96 9.46C7.85 9.8 7.75 10.15 7.64 10.52L7.62 10.59C7.49 11.08 7.34 11.64 7.48 12.25C7.61 12.81 7.9 13.24 8.37 13.58C8.8 13.89 9.29 14.04 9.88 14.04L10 14.04C10.96 14.01 11.81 13.51 12.54 12.57C13.34 11.55 13.83 10.17 14.02 8.49C14.09 7.81 14.11 7.26 14.08 6.75C14 5.63 13.66 4.68 13.05 3.92C12.47 3.2 11.68 2.66 10.75 2.36C9.81 2.06 8.52 1.97 7.44 2.15C5.49 2.49 3.98 3.58 3.06 5.3C2.56 6.24 2.31 7.23 2.31 8.32C2.31 9.22 2.53 10 2.95 10.64C3.01 10.73 3.08 10.82 3.16 10.9C3.22 10.97 3.28 11.04 3.31 11.09C3.32 11.16 3.26 11.38 3.22 11.5C3.2 11.57 3.18 11.63 3.17 11.69C3.15 11.76 3.13 11.84 3.12 11.91C3.1 11.98 3.09 12.07 3.07 12.13C2.96 12.09 2.82 12 2.74 11.94C1.97 11.36 1.69 10.99 1.31 10.05C1.02 9.34 0.88 7.93 1.02 7.21C1.18 6.4 1.52 5.37 1.8 4.86C2.42 3.72 3.31 2.81 4.46 2.13C5.38 1.59 6.37 1.25 7.5 1.09C7.91 1.03 8.34 1 8.78 0.98C10.22 0.92 11.42 1.29 12.12 1.6C13.01 2 13.76 2.54 14.41 3.25C15.07 3.96 15.52 4.79 15.81 5.77C15.96 6.28 16.03 6.87 16.03 7.54C16.03 8.13 15.98 8.68 15.87 9.36Z" />
		</g>
	</g>
</svg>