<svg version="1.2" baseProfile="tiny-ps" xmlns="http://www.w3.org/2000/svg" viewBox="0 0 22 18" width="22" height="18">
	<title>Image cricle</title>
	<style>
		tspan { white-space:pre }
		.shp0 { fill: #000000 } 
	</style>
	<g id="Image cricle">
		<g id="Add to Cart">
			<path id="Ttwitter" class="shp0" d="M21.85 2.61C21.59 2.23 21.07 2.13 20.7 2.4L18.12 4.21C17.88 4.38 17.75 4.65 17.76 4.94C17.77 5.12 17.77 5.28 17.77 5.44C17.77 10.79 13.76 16.32 7.05 16.32C5.69 16.32 4.34 16.05 3.09 15.54L7.06 14.41C7.51 14.29 7.76 13.82 7.64 13.38C7.52 12.93 7.06 12.67 6.62 12.79L0.61 14.5C0.29 14.59 0.06 14.86 0.01 15.18C-0.04 15.51 0.11 15.84 0.38 16.02C2.38 17.32 4.68 18 7.05 18C11.71 18 14.62 15.77 16.25 13.9C18.27 11.57 19.43 8.49 19.43 5.44C19.43 5.41 19.43 5.37 19.43 5.34L21.64 3.78C22.02 3.52 22.11 2.99 21.85 2.61ZM1.83 2.35L10.2 6.65C10.32 6.71 10.45 6.74 10.57 6.74C10.76 6.74 10.94 6.68 11.09 6.56C11.34 6.36 11.46 6.03 11.38 5.71C11.33 5.47 11.3 5.21 11.3 4.96C11.3 3.15 12.75 1.68 14.53 1.68C15.42 1.68 16.28 2.06 16.89 2.72C17.11 2.96 17.46 3.05 17.78 2.93L20.36 1.98C20.79 1.82 21.01 1.34 20.86 0.9C20.7 0.46 20.22 0.24 19.79 0.4L17.69 1.17C16.81 0.42 15.69 0 14.53 0C11.99 0 9.9 1.97 9.66 4.49L2.58 0.84C2.17 0.63 1.67 0.8 1.47 1.21C1.26 1.63 1.42 2.14 1.83 2.35ZM1.4 7.39L3.24 7.91C3.32 7.93 3.39 7.94 3.46 7.94C3.83 7.94 4.16 7.69 4.26 7.32C4.39 6.87 4.13 6.41 3.68 6.28L1.85 5.77C1.4 5.64 0.95 5.91 0.82 6.36C0.7 6.8 0.96 7.27 1.4 7.39ZM3.02 9.9C2.56 9.92 2.2 10.31 2.22 10.77C2.23 11.23 2.6 11.58 3.05 11.58C3.06 11.58 3.07 11.58 3.08 11.58L4.91 11.51C5.37 11.5 5.73 11.1 5.71 10.64C5.69 10.17 5.31 9.81 4.85 9.83L3.02 9.9Z" />
		</g>
	</g>
</svg>